:SAMPLES-PER-SECOND 30
:FRAME-RANGE 1-564
:FULLY-SPECIFIED
:DEGREES
512
root  43.2185 38.1946 -138.648 0.244751 -67.4511 2.46191
RightUpLeg  0.261206 -5.74042 -3.85992
RightLeg  6.89669 -18.0196 -0.603194
RightFoot  -6.61564 -0.232846 4.54919
RightToes  1.21801e-010 1.2921e-014 -6.02303e-014
Spine  -13.0968 -0.627065 1.48581
Spine1  12.0932 -0.438267 -1.52605
HEad  14.5821 10.4018 -1.89717
LeftShoulder1  0.788573 0.350091 -20.4935
LeftArm  -7.68219 9.20336 -52.1813
LeftForeArm  30.4364 4.71864 -10.8027
LeftHand  -0.0317333 5.92311 0.0973071
RightShoulder  0.924922 -0.565497 27.636
RightArm  -22.8992 3.33194 52.9214
RightForeArm  63.7286 -5.26059 4.77749
RightHand  0.180785 -6.6591 -17.8393
LeftUpLeg  -0.086294 3.96468 1.09364
LeftLeg  4.07316 15.1655 2.36969
LeftFoot  -5.62985 0.225709 -3.84698
LeftToes  1.70735e-010 3.74918e-011 3.68705e-011
513
root  43.2549 38.1587 -138.558 -0.326324 -67.4261 2.77194
RightUpLeg  0.326165 -6.40013 -4.35812
RightLeg  7.48433 -17.1649 -0.573188
RightFoot  -6.91044 -0.250994 5.26814
RightToes  1.21801e-010 1.2921e-014 -6.02303e-014
Spine  -12.8538 -0.938289 2.85899
Spine1  11.6995 -0.387953 -3.50116
HEad  14.152 10.1086 -1.6696
LeftShoulder1  0.590443 1.11046 -20.723
LeftArm  -7.36496 9.67997 -51.4688
LeftForeArm  29.9791 3.72749 -10.8736
LeftHand  -0.030864 5.6077 -0.100089
RightShoulder  1.27244 0.437162 27.971
RightArm  -23.3587 3.20059 53.2458
RightForeArm  65.5221 -5.64165 4.52153
RightHand  0.395364 -7.90179 -18.9004
LeftUpLeg  -0.135017 3.8712 0.805662
LeftLeg  4.81661 15.2412 2.5865
LeftFoot  -5.9937 0.213857 -3.8087
LeftToes  1.70735e-010 3.74918e-011 3.68705e-011
514
root  43.3022 38.1255 -138.492 -0.711945 -67.218 2.98804
RightUpLeg  0.127879 -7.0583 -4.64864
RightLeg  8.35126 -16.6504 -0.817179
RightFoot  -7.22604 -0.241416 5.34653
RightToes  1.21801e-010 1.2921e-014 -6.02303e-014
Spine  -12.9614 -0.819502 2.66818
Spine1  12.2285 -0.283372 -3.42205
HEad  13.2301 8.97445 -1.82491
LeftShoulder1  0.640872 0.884628 -20.2673
LeftArm  -7.87834 9.56178 -52.4962
LeftForeArm  29.9479 3.18221 -10.7244
LeftHand  -0.0360331 5.84642 0.251813
RightShoulder  1.13464 0.0395525 27.8622
RightArm  -23.3897 3.44037 53.4064
RightForeArm  66.9837 -5.58142 4.48548
RightHand  0.69429 -9.49432 -19.9518
LeftUpLeg  -0.359041 3.84339 0.580265
LeftLeg  5.65757 15.1258 2.77011
LeftFoot  -6.41477 0.178906 -3.26356
LeftToes  1.70735e-010 3.74918e-011 3.68705e-011
515
root  43.347 38.1029 -138.435 -0.977539 -66.8307 3.11893
RightUpLeg  0.112479 -7.60402 -4.91199
RightLeg  8.82623 -16.3923 -0.904064
RightFoot  -7.45371 -0.240674 5.59213
RightToes  1.21801e-010 1.2921e-014 -6.02303e-014
Spine  -12.5684 -0.894466 2.47477
Spine1  11.6017 -0.366784 -3.39274
HEad  13.1648 8.20757 -1.67484
LeftShoulder1  0.795304 0.29513 -20.2115
LeftArm  -8.17384 10.1122 -52.7479
LeftForeArm  30.0505 2.66788 -10.6313
LeftHand  -0.0279727 5.35543 0.661209
RightShoulder  1.12228 -0.0725937 28.6778
RightArm  -23.9151 3.29292 52.3015
RightForeArm  68.2893 -5.48751 4.21634
RightHand  0.739846 -9.77346 -19.8884
LeftUpLeg  -0.516726 3.81768 0.462306
LeftLeg  6.08898 14.7459 2.78123
LeftFoot  -6.5493 0.186798 -3.38538
LeftToes  1.70735e-010 3.74918e-011 3.68705e-011
516
root  43.3714 38.0858 -138.4 -1.06567 -66.4401 3.11963
RightUpLeg  0.124727 -7.74891 -4.92788
RightLeg  9.1727 -17.371 -1.27094
RightFoot  -7.73816 -0.273882 7.02351
RightToes  1.21801e-010 1.2921e-014 -6.02303e-014
Spine  -12.7188 -1.13795 1.90059
Spine1  11.8759 -0.7779 -2.68713
HEad  12.1965 8.94406 -1.5599
LeftShoulder1  0.782063 0.372509 -20.4741
LeftArm  -8.13256 9.37285 -53.1397
LeftForeArm  30.1271 3.30164 -10.6759
LeftHand  -0.0339054 5.53145 0.217892
RightShoulder  1.1859 0.134355 28.4458
RightArm  -24.8892 3.05499 52.2014
RightForeArm  68.0542 -5.41146 3.70428
RightHand  0.863542 -10.6059 -19.4827
LeftUpLeg  -0.656259 3.75447 0.346225
LeftLeg  6.50583 14.4691 2.90338
LeftFoot  -6.79415 0.160677 -2.97782
LeftToes  1.70735e-010 3.74918e-011 3.68705e-011
517
root  43.3872 38.0878 -138.363 -0.985382 -66.1829 3.01309
RightUpLeg  0.228132 -7.82128 -4.97123
RightLeg  9.09435 -17.5375 -1.23797
RightFoot  -7.6795 -0.275397 6.97081
RightToes  1.21801e-010 1.2921e-014 -6.02303e-014
Spine  -12.7772 -1.14756 1.8643
Spine1  11.878 -0.742928 -2.86374
HEad  12.4235 7.36447 -1.3741
LeftShoulder1  0.847076 0.0738293 -19.9905
LeftArm  -8.16459 9.19582 -53.639
LeftForeArm  30.7552 3.30711 -10.6673
LeftHand  -0.0258454 5.02117 0.449132
RightShoulder  1.06488 -0.28608 29.2325
RightArm  -25.6814 2.95989 51.3025
RightForeArm  68.3729 -5.32404 3.25254
RightHand  0.899941 -10.7455 -19.7427
LeftUpLeg  -0.661793 3.69518 0.292266
LeftLeg  6.49349 14.2818 2.93598
LeftFoot  -6.78725 0.156575 -2.91296
LeftToes  1.70735e-010 3.74918e-011 3.68705e-011
518
root  43.3973 38.092 -138.325 -1.13239 -66.0581 3.16681
RightUpLeg  0.272338 -7.56647 -5.00169
RightLeg  9.05958 -17.8954 -1.43439
RightFoot  -7.61213 -0.288403 7.25692
RightToes  1.21801e-010 1.2921e-014 -6.02303e-014
Spine  -13.2134 -1.29626 1.90247
Spine1  12.643 -0.829156 -3.09966
HEad  11.8665 7.48562 -1.23502
LeftShoulder1  0.748881 0.408735 -19.6033
LeftArm  -8.07972 8.64871 -54.2003
LeftForeArm  30.9557 3.14153 -10.6981
LeftHand  -0.029867 5.35207 0.708074
RightShoulder  1.04517 -0.327131 29.0474
RightArm  -27.0046 2.90452 51.4052
RightForeArm  68.1166 -5.20361 2.47507
RightHand  0.777285 -10.3646 -18.49
LeftUpLeg  -0.53274 3.65122 0.165637
LeftLeg  6.22397 14.2116 2.84158
LeftFoot  -6.69837 0.151153 -2.82725
LeftToes  1.70735e-010 3.74918e-011 3.68705e-011
519
root  43.4171 38.1027 -138.289 -1.09415 -65.9654 3.17535
RightUpLeg  0.328481 -7.28048 -5.01003
RightLeg  8.8382 -18.2885 -1.45606
RightFoot  -7.45171 -0.300895 7.35649
RightToes  1.21801e-010 1.2921e-014 -6.02303e-014
Spine  -13.3169 -1.33037 1.85677
Spine1  12.77 -0.881164 -2.95665
HEad  11.5208 7.36351 -1.15694
LeftShoulder1  0.780101 0.291054 -19.6321
LeftArm  -8.12163 8.36111 -54.2769
LeftForeArm  30.9949 3.15684 -10.6739
LeftHand  -0.0287035 5.26285 0.564862
RightShoulder  1.0192 -0.398202 29.0044
RightArm  -27.7148 2.47719 51.0609
RightForeArm  68.7656 -5.10849 2.05686
RightHand  0.876176 -10.6286 -19.6647
LeftUpLeg  -0.483976 3.49782 0.051894
LeftLeg  5.9683 14.2819 2.85419
LeftFoot  -6.58481 0.161079 -2.97976
LeftToes  1.70735e-010 3.74918e-011 3.68705e-011
520
root  43.4451 38.1131 -138.267 -0.829437 -66.0555 2.99872
RightUpLeg  0.310741 -7.17603 -5.00598
RightLeg  8.53962 -18.3369 -1.25639
RightFoot  -7.26745 -0.308973 7.28562
RightToes  1.21801e-010 1.2921e-014 -6.02303e-014
Spine  -13.2642 -1.38475 2.14371
Spine1  12.693 -0.885222 -3.21839
HEad  10.8577 7.98843 -0.845819
LeftShoulder1  0.775067 0.299705 -19.5322
LeftArm  -8.17323 8.22064 -54.2852
LeftForeArm  30.8128 3.07167 -10.6518
LeftHand  -0.0391672 5.82132 -0.0757941
RightShoulder  1.02489 -0.395931 29.1785
RightArm  -28.2507 2.15958 50.6578
RightForeArm  69.5253 -5.02423 1.73069
RightHand  0.774698 -10.0997 -19.4007
LeftUpLeg  -0.596026 3.55656 0.125153
LeftLeg  5.90275 14.2936 2.75685
LeftFoot  -6.53247 0.165403 -3.04471
LeftToes  1.70735e-010 3.74918e-011 3.68705e-011
